<mxfile host="app.diagrams.net" modified="2023-06-24T18:59:03.983Z" agent="Mozilla/5.0 (Windows NT 10.0; Win64; x64) AppleWebKit/537.36 (KHTML, like Gecko) Chrome/114.0.0.0 Safari/537.36" etag="MATvutTQx1RDQt3E4mZo" version="21.2.3" type="device">
  <diagram id="C5RBs43oDa-KdzZeNtuy" name="Page-1">
    <mxGraphModel dx="3096" dy="3029" grid="1" gridSize="10" guides="1" tooltips="1" connect="1" arrows="1" fold="1" page="1" pageScale="1" pageWidth="827" pageHeight="1169" math="0" shadow="0">
      <root>
        <mxCell id="WIyWlLk6GJQsqaUBKTNV-0" />
        <mxCell id="WIyWlLk6GJQsqaUBKTNV-1" parent="WIyWlLk6GJQsqaUBKTNV-0" />
        <mxCell id="zkfFHV4jXpPFQw0GAbJ--0" value="&lt;&lt;abstract&gt;&gt; Produto" style="swimlane;fontStyle=2;align=center;verticalAlign=top;childLayout=stackLayout;horizontal=1;startSize=26;horizontalStack=0;resizeParent=1;resizeLast=0;collapsible=1;marginBottom=0;rounded=0;shadow=0;strokeWidth=1;swimlaneLine=1;perimeterSpacing=0;" parent="WIyWlLk6GJQsqaUBKTNV-1" vertex="1">
          <mxGeometry x="160" y="-390" width="550" height="854" as="geometry">
            <mxRectangle x="256" y="20" width="160" height="26" as="alternateBounds" />
          </mxGeometry>
        </mxCell>
        <mxCell id="zkfFHV4jXpPFQw0GAbJ--1" value="# nome : String" style="text;align=left;verticalAlign=top;spacingLeft=4;spacingRight=4;overflow=hidden;rotatable=0;points=[[0,0.5],[1,0.5]];portConstraint=eastwest;" parent="zkfFHV4jXpPFQw0GAbJ--0" vertex="1">
          <mxGeometry y="26" width="550" height="26" as="geometry" />
        </mxCell>
        <mxCell id="E04pcbBt4ZjqkLTvvGPm-2" value="# descricao : String" style="text;align=left;verticalAlign=top;spacingLeft=4;spacingRight=4;overflow=hidden;rotatable=0;points=[[0,0.5],[1,0.5]];portConstraint=eastwest;rounded=0;shadow=0;html=0;" parent="zkfFHV4jXpPFQw0GAbJ--0" vertex="1">
          <mxGeometry y="52" width="550" height="26" as="geometry" />
        </mxCell>
        <mxCell id="E04pcbBt4ZjqkLTvvGPm-0" value="# marca : String" style="text;align=left;verticalAlign=top;spacingLeft=4;spacingRight=4;overflow=hidden;rotatable=0;points=[[0,0.5],[1,0.5]];portConstraint=eastwest;rounded=0;shadow=0;html=0;" parent="zkfFHV4jXpPFQw0GAbJ--0" vertex="1">
          <mxGeometry y="78" width="550" height="26" as="geometry" />
        </mxCell>
        <mxCell id="E04pcbBt4ZjqkLTvvGPm-1" value="# cor : String" style="text;align=left;verticalAlign=top;spacingLeft=4;spacingRight=4;overflow=hidden;rotatable=0;points=[[0,0.5],[1,0.5]];portConstraint=eastwest;rounded=0;shadow=0;html=0;" parent="zkfFHV4jXpPFQw0GAbJ--0" vertex="1">
          <mxGeometry y="104" width="550" height="26" as="geometry" />
        </mxCell>
        <mxCell id="zkfFHV4jXpPFQw0GAbJ--2" value="# categoria : String" style="text;align=left;verticalAlign=top;spacingLeft=4;spacingRight=4;overflow=hidden;rotatable=0;points=[[0,0.5],[1,0.5]];portConstraint=eastwest;rounded=0;shadow=0;html=0;" parent="zkfFHV4jXpPFQw0GAbJ--0" vertex="1">
          <mxGeometry y="130" width="550" height="26" as="geometry" />
        </mxCell>
        <mxCell id="ofeIjZrTYPM0pZZqyoee-0" value="# valor : double" style="text;align=left;verticalAlign=top;spacingLeft=4;spacingRight=4;overflow=hidden;rotatable=0;points=[[0,0.5],[1,0.5]];portConstraint=eastwest;rounded=0;shadow=0;html=0;" parent="zkfFHV4jXpPFQw0GAbJ--0" vertex="1">
          <mxGeometry y="156" width="550" height="26" as="geometry" />
        </mxCell>
        <mxCell id="zkfFHV4jXpPFQw0GAbJ--3" value="# quantidade : int" style="text;align=left;verticalAlign=top;spacingLeft=4;spacingRight=4;overflow=hidden;rotatable=0;points=[[0,0.5],[1,0.5]];portConstraint=eastwest;rounded=0;shadow=0;html=0;" parent="zkfFHV4jXpPFQw0GAbJ--0" vertex="1">
          <mxGeometry y="182" width="550" height="26" as="geometry" />
        </mxCell>
        <mxCell id="zi2qdgZ5hEnQhHXnhvMA-0" value="# codigo : long" style="text;align=left;verticalAlign=top;spacingLeft=4;spacingRight=4;overflow=hidden;rotatable=0;points=[[0,0.5],[1,0.5]];portConstraint=eastwest;rounded=0;shadow=0;html=0;" vertex="1" parent="zkfFHV4jXpPFQw0GAbJ--0">
          <mxGeometry y="208" width="550" height="26" as="geometry" />
        </mxCell>
        <mxCell id="zkfFHV4jXpPFQw0GAbJ--4" value="" style="line;html=1;strokeWidth=1;align=left;verticalAlign=middle;spacingTop=-1;spacingLeft=3;spacingRight=3;rotatable=0;labelPosition=right;points=[];portConstraint=eastwest;" parent="zkfFHV4jXpPFQw0GAbJ--0" vertex="1">
          <mxGeometry y="234" width="550" height="8" as="geometry" />
        </mxCell>
        <mxCell id="kKEf6lI8IoqkB2jt7rZ_-108" value="+ Produto(nome: String, descricao: String, valor: double, quantidade: int, codigo: long)" style="text;align=left;verticalAlign=top;spacingLeft=4;spacingRight=4;overflow=hidden;rotatable=0;points=[[0,0.5],[1,0.5]];portConstraint=eastwest;rounded=0;shadow=0;html=1;fontColor=default;labelBackgroundColor=default;labelBorderColor=none;whiteSpace=wrap;" parent="zkfFHV4jXpPFQw0GAbJ--0" vertex="1">
          <mxGeometry y="242" width="550" height="26" as="geometry" />
        </mxCell>
        <mxCell id="kKEf6lI8IoqkB2jt7rZ_-109" value="+ Produto(nome: String, descricao: String, marca: String, cor: String, categoria: String, valor: double, quantidade: int, codigo: long)" style="text;align=left;verticalAlign=top;spacingLeft=4;spacingRight=4;overflow=hidden;rotatable=0;points=[[0,0.5],[1,0.5]];portConstraint=eastwest;rounded=0;shadow=0;html=1;whiteSpace=wrap;" parent="zkfFHV4jXpPFQw0GAbJ--0" vertex="1">
          <mxGeometry y="268" width="550" height="32" as="geometry" />
        </mxCell>
        <mxCell id="kKEf6lI8IoqkB2jt7rZ_-133" value="" style="line;html=1;strokeWidth=1;align=left;verticalAlign=middle;spacingTop=-1;spacingLeft=3;spacingRight=3;rotatable=0;labelPosition=right;points=[];portConstraint=eastwest;" parent="zkfFHV4jXpPFQw0GAbJ--0" vertex="1">
          <mxGeometry y="300" width="550" height="8" as="geometry" />
        </mxCell>
        <mxCell id="ofeIjZrTYPM0pZZqyoee-1" value="+ getCodigo() : long" style="text;align=left;verticalAlign=top;spacingLeft=4;spacingRight=4;overflow=hidden;rotatable=0;points=[[0,0.5],[1,0.5]];portConstraint=eastwest;rounded=0;shadow=0;html=0;" parent="zkfFHV4jXpPFQw0GAbJ--0" vertex="1">
          <mxGeometry y="308" width="550" height="26" as="geometry" />
        </mxCell>
        <mxCell id="ofeIjZrTYPM0pZZqyoee-2" value="+ setCodigo(codigo : long) : void" style="text;align=left;verticalAlign=top;spacingLeft=4;spacingRight=4;overflow=hidden;rotatable=0;points=[[0,0.5],[1,0.5]];portConstraint=eastwest;rounded=0;shadow=0;html=0;" parent="zkfFHV4jXpPFQw0GAbJ--0" vertex="1">
          <mxGeometry y="334" width="550" height="26" as="geometry" />
        </mxCell>
        <mxCell id="kKEf6lI8IoqkB2jt7rZ_-110" value="+ getNome() : String" style="text;align=left;verticalAlign=top;spacingLeft=4;spacingRight=4;overflow=hidden;rotatable=0;points=[[0,0.5],[1,0.5]];portConstraint=eastwest;rounded=0;shadow=0;html=0;" parent="zkfFHV4jXpPFQw0GAbJ--0" vertex="1">
          <mxGeometry y="360" width="550" height="26" as="geometry" />
        </mxCell>
        <mxCell id="kKEf6lI8IoqkB2jt7rZ_-111" value="+ setNome(nome: String) : voidÂ " style="text;align=left;verticalAlign=top;spacingLeft=4;spacingRight=4;overflow=hidden;rotatable=0;points=[[0,0.5],[1,0.5]];portConstraint=eastwest;rounded=0;shadow=0;html=0;" parent="zkfFHV4jXpPFQw0GAbJ--0" vertex="1">
          <mxGeometry y="386" width="550" height="26" as="geometry" />
        </mxCell>
        <mxCell id="zi2qdgZ5hEnQhHXnhvMA-3" value="+ getDescricao(): String " style="text;align=left;verticalAlign=top;spacingLeft=4;spacingRight=4;overflow=hidden;rotatable=0;points=[[0,0.5],[1,0.5]];portConstraint=eastwest;rounded=0;shadow=0;html=1;" vertex="1" parent="zkfFHV4jXpPFQw0GAbJ--0">
          <mxGeometry y="412" width="550" height="26" as="geometry" />
        </mxCell>
        <mxCell id="zi2qdgZ5hEnQhHXnhvMA-4" value="+ setDescricao(descricao: String): void" style="text;align=left;verticalAlign=top;spacingLeft=4;spacingRight=4;overflow=hidden;rotatable=0;points=[[0,0.5],[1,0.5]];portConstraint=eastwest;rounded=0;shadow=0;" vertex="1" parent="zkfFHV4jXpPFQw0GAbJ--0">
          <mxGeometry y="438" width="550" height="26" as="geometry" />
        </mxCell>
        <mxCell id="E04pcbBt4ZjqkLTvvGPm-4" value="+ getMarca() : String" style="text;align=left;verticalAlign=top;spacingLeft=4;spacingRight=4;overflow=hidden;rotatable=0;points=[[0,0.5],[1,0.5]];portConstraint=eastwest;rounded=0;shadow=0;html=0;" parent="zkfFHV4jXpPFQw0GAbJ--0" vertex="1">
          <mxGeometry y="464" width="550" height="26" as="geometry" />
        </mxCell>
        <mxCell id="E04pcbBt4ZjqkLTvvGPm-6" value="+ setMarca(marca : String) : void" style="text;align=left;verticalAlign=top;spacingLeft=4;spacingRight=4;overflow=hidden;rotatable=0;points=[[0,0.5],[1,0.5]];portConstraint=eastwest;rounded=0;shadow=0;html=0;" parent="zkfFHV4jXpPFQw0GAbJ--0" vertex="1">
          <mxGeometry y="490" width="550" height="26" as="geometry" />
        </mxCell>
        <mxCell id="E04pcbBt4ZjqkLTvvGPm-7" value="+ getCor() : String" style="text;align=left;verticalAlign=top;spacingLeft=4;spacingRight=4;overflow=hidden;rotatable=0;points=[[0,0.5],[1,0.5]];portConstraint=eastwest;rounded=0;shadow=0;html=0;" parent="zkfFHV4jXpPFQw0GAbJ--0" vertex="1">
          <mxGeometry y="516" width="550" height="26" as="geometry" />
        </mxCell>
        <mxCell id="E04pcbBt4ZjqkLTvvGPm-8" value="+ setCor(cor : String) : void" style="text;align=left;verticalAlign=top;spacingLeft=4;spacingRight=4;overflow=hidden;rotatable=0;points=[[0,0.5],[1,0.5]];portConstraint=eastwest;rounded=0;shadow=0;html=0;" parent="zkfFHV4jXpPFQw0GAbJ--0" vertex="1">
          <mxGeometry y="542" width="550" height="26" as="geometry" />
        </mxCell>
        <mxCell id="E04pcbBt4ZjqkLTvvGPm-5" value="+ getCategoria() : String" style="text;align=left;verticalAlign=top;spacingLeft=4;spacingRight=4;overflow=hidden;rotatable=0;points=[[0,0.5],[1,0.5]];portConstraint=eastwest;rounded=0;shadow=0;html=0;" parent="zkfFHV4jXpPFQw0GAbJ--0" vertex="1">
          <mxGeometry y="568" width="550" height="26" as="geometry" />
        </mxCell>
        <mxCell id="E04pcbBt4ZjqkLTvvGPm-3" value="+ setCategoria(categoria : String) : void" style="text;align=left;verticalAlign=top;spacingLeft=4;spacingRight=4;overflow=hidden;rotatable=0;points=[[0,0.5],[1,0.5]];portConstraint=eastwest;rounded=0;shadow=0;html=0;" parent="zkfFHV4jXpPFQw0GAbJ--0" vertex="1">
          <mxGeometry y="594" width="550" height="26" as="geometry" />
        </mxCell>
        <mxCell id="kKEf6lI8IoqkB2jt7rZ_-112" value="+ getValor() : double" style="text;align=left;verticalAlign=top;spacingLeft=4;spacingRight=4;overflow=hidden;rotatable=0;points=[[0,0.5],[1,0.5]];portConstraint=eastwest;rounded=0;shadow=0;html=0;" parent="zkfFHV4jXpPFQw0GAbJ--0" vertex="1">
          <mxGeometry y="620" width="550" height="26" as="geometry" />
        </mxCell>
        <mxCell id="kKEf6lI8IoqkB2jt7rZ_-113" value="+ setValor(valor : double) : void" style="text;align=left;verticalAlign=top;spacingLeft=4;spacingRight=4;overflow=hidden;rotatable=0;points=[[0,0.5],[1,0.5]];portConstraint=eastwest;rounded=0;shadow=0;html=0;" parent="zkfFHV4jXpPFQw0GAbJ--0" vertex="1">
          <mxGeometry y="646" width="550" height="26" as="geometry" />
        </mxCell>
        <mxCell id="kKEf6lI8IoqkB2jt7rZ_-114" value="+ getQuantidade() : int" style="text;align=left;verticalAlign=top;spacingLeft=4;spacingRight=4;overflow=hidden;rotatable=0;points=[[0,0.5],[1,0.5]];portConstraint=eastwest;rounded=0;shadow=0;html=0;" parent="zkfFHV4jXpPFQw0GAbJ--0" vertex="1">
          <mxGeometry y="672" width="550" height="26" as="geometry" />
        </mxCell>
        <mxCell id="kKEf6lI8IoqkB2jt7rZ_-115" value="+ setQuantidade(quantidade : int) : void" style="text;align=left;verticalAlign=top;spacingLeft=4;spacingRight=4;overflow=hidden;rotatable=0;points=[[0,0.5],[1,0.5]];portConstraint=eastwest;rounded=0;shadow=0;html=0;" parent="zkfFHV4jXpPFQw0GAbJ--0" vertex="1">
          <mxGeometry y="698" width="550" height="26" as="geometry" />
        </mxCell>
        <mxCell id="zi2qdgZ5hEnQhHXnhvMA-7" value="+ adicionaQuantidade(quantidade: int): void" style="text;align=left;verticalAlign=top;spacingLeft=4;spacingRight=4;overflow=hidden;rotatable=0;points=[[0,0.5],[1,0.5]];portConstraint=eastwest;rounded=0;shadow=0;html=1;" vertex="1" parent="zkfFHV4jXpPFQw0GAbJ--0">
          <mxGeometry y="724" width="550" height="26" as="geometry" />
        </mxCell>
        <mxCell id="zi2qdgZ5hEnQhHXnhvMA-8" value="+ removeQuantidade(quantidade: int): void" style="text;align=left;verticalAlign=top;spacingLeft=4;spacingRight=4;overflow=hidden;rotatable=0;points=[[0,0.5],[1,0.5]];portConstraint=eastwest;rounded=0;shadow=0;" vertex="1" parent="zkfFHV4jXpPFQw0GAbJ--0">
          <mxGeometry y="750" width="550" height="26" as="geometry" />
        </mxCell>
        <mxCell id="zi2qdgZ5hEnQhHXnhvMA-9" value="+ Produto(outro: Produto)" style="text;align=left;verticalAlign=top;spacingLeft=4;spacingRight=4;overflow=hidden;rotatable=0;points=[[0,0.5],[1,0.5]];portConstraint=eastwest;rounded=0;shadow=0;html=1;" vertex="1" parent="zkfFHV4jXpPFQw0GAbJ--0">
          <mxGeometry y="776" width="550" height="26" as="geometry" />
        </mxCell>
        <mxCell id="zi2qdgZ5hEnQhHXnhvMA-10" value="+ toString(): String" style="text;align=left;verticalAlign=top;spacingLeft=4;spacingRight=4;overflow=hidden;rotatable=0;points=[[0,0.5],[1,0.5]];portConstraint=eastwest;rounded=0;shadow=0;" vertex="1" parent="zkfFHV4jXpPFQw0GAbJ--0">
          <mxGeometry y="802" width="550" height="26" as="geometry" />
        </mxCell>
        <mxCell id="zi2qdgZ5hEnQhHXnhvMA-11" value="+ mostrarInformacoes(): void" style="text;align=left;verticalAlign=top;spacingLeft=4;spacingRight=4;overflow=hidden;rotatable=0;points=[[0,0.5],[1,0.5]];portConstraint=eastwest;rounded=0;shadow=0;html=1;" vertex="1" parent="zkfFHV4jXpPFQw0GAbJ--0">
          <mxGeometry y="828" width="550" height="26" as="geometry" />
        </mxCell>
        <mxCell id="kKEf6lI8IoqkB2jt7rZ_-117" value="Livros" style="swimlane;fontStyle=2;align=center;verticalAlign=top;childLayout=stackLayout;horizontal=1;startSize=26;horizontalStack=0;resizeParent=1;resizeLast=0;collapsible=1;marginBottom=0;rounded=0;shadow=0;strokeWidth=1;" parent="WIyWlLk6GJQsqaUBKTNV-1" vertex="1">
          <mxGeometry x="-620" y="-330" width="550" height="472" as="geometry">
            <mxRectangle x="-640" width="160" height="26" as="alternateBounds" />
          </mxGeometry>
        </mxCell>
        <mxCell id="kKEf6lI8IoqkB2jt7rZ_-118" value="- autor : String" style="text;align=left;verticalAlign=top;spacingLeft=4;spacingRight=4;overflow=hidden;rotatable=0;points=[[0,0.5],[1,0.5]];portConstraint=eastwest;" parent="kKEf6lI8IoqkB2jt7rZ_-117" vertex="1">
          <mxGeometry y="26" width="550" height="26" as="geometry" />
        </mxCell>
        <mxCell id="kKEf6lI8IoqkB2jt7rZ_-119" value="- editora : String" style="text;align=left;verticalAlign=top;spacingLeft=4;spacingRight=4;overflow=hidden;rotatable=0;points=[[0,0.5],[1,0.5]];portConstraint=eastwest;rounded=0;shadow=0;html=0;" parent="kKEf6lI8IoqkB2jt7rZ_-117" vertex="1">
          <mxGeometry y="52" width="550" height="26" as="geometry" />
        </mxCell>
        <mxCell id="2gL05hQ5_HFMvIBrOr-T-1" value="- genero : String" style="text;align=left;verticalAlign=top;spacingLeft=4;spacingRight=4;overflow=hidden;rotatable=0;points=[[0,0.5],[1,0.5]];portConstraint=eastwest;rounded=0;shadow=0;html=0;" parent="kKEf6lI8IoqkB2jt7rZ_-117" vertex="1">
          <mxGeometry y="78" width="550" height="26" as="geometry" />
        </mxCell>
        <mxCell id="2gL05hQ5_HFMvIBrOr-T-2" value="- formato : String" style="text;align=left;verticalAlign=top;spacingLeft=4;spacingRight=4;overflow=hidden;rotatable=0;points=[[0,0.5],[1,0.5]];portConstraint=eastwest;rounded=0;shadow=0;html=0;" parent="kKEf6lI8IoqkB2jt7rZ_-117" vertex="1">
          <mxGeometry y="104" width="550" height="26" as="geometry" />
        </mxCell>
        <mxCell id="zi2qdgZ5hEnQhHXnhvMA-18" value="+ contList: int (static)" style="text;align=left;verticalAlign=top;spacingLeft=4;spacingRight=4;overflow=hidden;rotatable=0;points=[[0,0.5],[1,0.5]];portConstraint=eastwest;rounded=0;shadow=0;html=1;" vertex="1" parent="kKEf6lI8IoqkB2jt7rZ_-117">
          <mxGeometry y="130" width="550" height="26" as="geometry" />
        </mxCell>
        <mxCell id="kKEf6lI8IoqkB2jt7rZ_-121" value="" style="line;html=1;strokeWidth=1;align=left;verticalAlign=middle;spacingTop=-1;spacingLeft=3;spacingRight=3;rotatable=0;labelPosition=right;points=[];portConstraint=eastwest;" parent="kKEf6lI8IoqkB2jt7rZ_-117" vertex="1">
          <mxGeometry y="156" width="550" height="8" as="geometry" />
        </mxCell>
        <mxCell id="kKEf6lI8IoqkB2jt7rZ_-123" value="+ Livros(nome: String, descricao: String, valor: double, quantidade: int, codigo: long, autor: String, editora: String, genero: String, formato: String)" style="text;align=left;verticalAlign=top;spacingLeft=4;spacingRight=4;overflow=hidden;rotatable=0;points=[[0,0.5],[1,0.5]];portConstraint=eastwest;rounded=0;shadow=0;html=1;whiteSpace=wrap;" parent="kKEf6lI8IoqkB2jt7rZ_-117" vertex="1">
          <mxGeometry y="164" width="550" height="36" as="geometry" />
        </mxCell>
        <mxCell id="zi2qdgZ5hEnQhHXnhvMA-19" value="+ Livros(outro: Livros)" style="text;align=left;verticalAlign=top;spacingLeft=4;spacingRight=4;overflow=hidden;rotatable=0;points=[[0,0.5],[1,0.5]];portConstraint=eastwest;rounded=0;shadow=0;whiteSpace=wrap;" vertex="1" parent="kKEf6lI8IoqkB2jt7rZ_-117">
          <mxGeometry y="200" width="550" height="30" as="geometry" />
        </mxCell>
        <mxCell id="kKEf6lI8IoqkB2jt7rZ_-134" value="" style="line;html=1;strokeWidth=1;align=left;verticalAlign=middle;spacingTop=-1;spacingLeft=3;spacingRight=3;rotatable=0;labelPosition=right;points=[];portConstraint=eastwest;" parent="kKEf6lI8IoqkB2jt7rZ_-117" vertex="1">
          <mxGeometry y="230" width="550" height="8" as="geometry" />
        </mxCell>
        <mxCell id="kKEf6lI8IoqkB2jt7rZ_-125" value="+ getAutor() : String" style="text;align=left;verticalAlign=top;spacingLeft=4;spacingRight=4;overflow=hidden;rotatable=0;points=[[0,0.5],[1,0.5]];portConstraint=eastwest;rounded=0;shadow=0;html=0;" parent="kKEf6lI8IoqkB2jt7rZ_-117" vertex="1">
          <mxGeometry y="238" width="550" height="26" as="geometry" />
        </mxCell>
        <mxCell id="kKEf6lI8IoqkB2jt7rZ_-126" value="+ setAutor(autor : String) : void" style="text;align=left;verticalAlign=top;spacingLeft=4;spacingRight=4;overflow=hidden;rotatable=0;points=[[0,0.5],[1,0.5]];portConstraint=eastwest;rounded=0;shadow=0;html=0;" parent="kKEf6lI8IoqkB2jt7rZ_-117" vertex="1">
          <mxGeometry y="264" width="550" height="26" as="geometry" />
        </mxCell>
        <mxCell id="kKEf6lI8IoqkB2jt7rZ_-127" value="+ getEditora() : String" style="text;align=left;verticalAlign=top;spacingLeft=4;spacingRight=4;overflow=hidden;rotatable=0;points=[[0,0.5],[1,0.5]];portConstraint=eastwest;rounded=0;shadow=0;html=0;" parent="kKEf6lI8IoqkB2jt7rZ_-117" vertex="1">
          <mxGeometry y="290" width="550" height="26" as="geometry" />
        </mxCell>
        <mxCell id="kKEf6lI8IoqkB2jt7rZ_-128" value="+ setEditora(editora : String) : void" style="text;align=left;verticalAlign=top;spacingLeft=4;spacingRight=4;overflow=hidden;rotatable=0;points=[[0,0.5],[1,0.5]];portConstraint=eastwest;rounded=0;shadow=0;html=0;" parent="kKEf6lI8IoqkB2jt7rZ_-117" vertex="1">
          <mxGeometry y="316" width="550" height="26" as="geometry" />
        </mxCell>
        <mxCell id="2gL05hQ5_HFMvIBrOr-T-4" value="+ getGenero() : String" style="text;align=left;verticalAlign=top;spacingLeft=4;spacingRight=4;overflow=hidden;rotatable=0;points=[[0,0.5],[1,0.5]];portConstraint=eastwest;rounded=0;shadow=0;html=0;" parent="kKEf6lI8IoqkB2jt7rZ_-117" vertex="1">
          <mxGeometry y="342" width="550" height="26" as="geometry" />
        </mxCell>
        <mxCell id="2gL05hQ5_HFMvIBrOr-T-5" value="+ setGenero(genero : String) : void" style="text;align=left;verticalAlign=top;spacingLeft=4;spacingRight=4;overflow=hidden;rotatable=0;points=[[0,0.5],[1,0.5]];portConstraint=eastwest;rounded=0;shadow=0;html=0;" parent="kKEf6lI8IoqkB2jt7rZ_-117" vertex="1">
          <mxGeometry y="368" width="550" height="26" as="geometry" />
        </mxCell>
        <mxCell id="2gL05hQ5_HFMvIBrOr-T-6" value="+ setFormato() : String" style="text;align=left;verticalAlign=top;spacingLeft=4;spacingRight=4;overflow=hidden;rotatable=0;points=[[0,0.5],[1,0.5]];portConstraint=eastwest;rounded=0;shadow=0;html=0;" parent="kKEf6lI8IoqkB2jt7rZ_-117" vertex="1">
          <mxGeometry y="394" width="550" height="26" as="geometry" />
        </mxCell>
        <mxCell id="2gL05hQ5_HFMvIBrOr-T-3" value="+ setFormato(formato : String) : void" style="text;align=left;verticalAlign=top;spacingLeft=4;spacingRight=4;overflow=hidden;rotatable=0;points=[[0,0.5],[1,0.5]];portConstraint=eastwest;rounded=0;shadow=0;html=0;" parent="kKEf6lI8IoqkB2jt7rZ_-117" vertex="1">
          <mxGeometry y="420" width="550" height="26" as="geometry" />
        </mxCell>
        <mxCell id="zi2qdgZ5hEnQhHXnhvMA-20" value="+ toString(): String" style="text;align=left;verticalAlign=top;spacingLeft=4;spacingRight=4;overflow=hidden;rotatable=0;points=[[0,0.5],[1,0.5]];portConstraint=eastwest;rounded=0;shadow=0;html=1;" vertex="1" parent="kKEf6lI8IoqkB2jt7rZ_-117">
          <mxGeometry y="446" width="550" height="26" as="geometry" />
        </mxCell>
        <mxCell id="kKEf6lI8IoqkB2jt7rZ_-135" value="Eletrodomestico" style="swimlane;fontStyle=2;align=center;verticalAlign=top;childLayout=stackLayout;horizontal=1;startSize=26;horizontalStack=0;resizeParent=1;resizeLast=0;collapsible=1;marginBottom=0;rounded=0;shadow=0;strokeWidth=1;" parent="WIyWlLk6GJQsqaUBKTNV-1" vertex="1">
          <mxGeometry x="880" y="-320" width="550" height="242" as="geometry">
            <mxRectangle x="710" y="400" width="160" height="26" as="alternateBounds" />
          </mxGeometry>
        </mxCell>
        <mxCell id="zi2qdgZ5hEnQhHXnhvMA-15" value="- eficienciaEnergetica : String" style="text;align=left;verticalAlign=top;spacingLeft=4;spacingRight=4;overflow=hidden;rotatable=0;points=[[0,0.5],[1,0.5]];portConstraint=eastwest;" vertex="1" parent="kKEf6lI8IoqkB2jt7rZ_-135">
          <mxGeometry y="26" width="550" height="26" as="geometry" />
        </mxCell>
        <mxCell id="kKEf6lI8IoqkB2jt7rZ_-136" value="+ contList: int (static)" style="text;align=left;verticalAlign=top;spacingLeft=4;spacingRight=4;overflow=hidden;rotatable=0;points=[[0,0.5],[1,0.5]];portConstraint=eastwest;html=1;" parent="kKEf6lI8IoqkB2jt7rZ_-135" vertex="1">
          <mxGeometry y="52" width="550" height="26" as="geometry" />
        </mxCell>
        <mxCell id="kKEf6lI8IoqkB2jt7rZ_-138" value="" style="line;html=1;strokeWidth=1;align=left;verticalAlign=middle;spacingTop=-1;spacingLeft=3;spacingRight=3;rotatable=0;labelPosition=right;points=[];portConstraint=eastwest;" parent="kKEf6lI8IoqkB2jt7rZ_-135" vertex="1">
          <mxGeometry y="78" width="550" height="8" as="geometry" />
        </mxCell>
        <mxCell id="kKEf6lI8IoqkB2jt7rZ_-140" value="+ Eletrodomestico(nome: String, descricao: String, marca: String, cor: String, categoria: String, valor: double, quantidade: int, eficienciaEnergetica: String, codigo: long)" style="text;align=left;verticalAlign=top;spacingLeft=4;spacingRight=4;overflow=hidden;rotatable=0;points=[[0,0.5],[1,0.5]];portConstraint=eastwest;rounded=0;shadow=0;html=1;whiteSpace=wrap;" parent="kKEf6lI8IoqkB2jt7rZ_-135" vertex="1">
          <mxGeometry y="86" width="550" height="44" as="geometry" />
        </mxCell>
        <mxCell id="kKEf6lI8IoqkB2jt7rZ_-142" value="" style="line;html=1;strokeWidth=1;align=left;verticalAlign=middle;spacingTop=-1;spacingLeft=3;spacingRight=3;rotatable=0;labelPosition=right;points=[];portConstraint=eastwest;" parent="kKEf6lI8IoqkB2jt7rZ_-135" vertex="1">
          <mxGeometry y="130" width="550" height="8" as="geometry" />
        </mxCell>
        <mxCell id="kKEf6lI8IoqkB2jt7rZ_-150" value="+ getEficienciaEnergetica() : String" style="text;align=left;verticalAlign=top;spacingLeft=4;spacingRight=4;overflow=hidden;rotatable=0;points=[[0,0.5],[1,0.5]];portConstraint=eastwest;rounded=0;shadow=0;html=0;" parent="kKEf6lI8IoqkB2jt7rZ_-135" vertex="1">
          <mxGeometry y="138" width="550" height="26" as="geometry" />
        </mxCell>
        <mxCell id="2gL05hQ5_HFMvIBrOr-T-18" value="+ setEficienciaEnergetica(eficienciaEnergetica : String) : void" style="text;align=left;verticalAlign=top;spacingLeft=4;spacingRight=4;overflow=hidden;rotatable=0;points=[[0,0.5],[1,0.5]];portConstraint=eastwest;rounded=0;shadow=0;html=0;" parent="kKEf6lI8IoqkB2jt7rZ_-135" vertex="1">
          <mxGeometry y="164" width="550" height="26" as="geometry" />
        </mxCell>
        <mxCell id="zi2qdgZ5hEnQhHXnhvMA-16" value="+ Eletrodomestico(outro: Eletrodomestico)" style="text;align=left;verticalAlign=top;spacingLeft=4;spacingRight=4;overflow=hidden;rotatable=0;points=[[0,0.5],[1,0.5]];portConstraint=eastwest;rounded=0;shadow=0;html=1;" vertex="1" parent="kKEf6lI8IoqkB2jt7rZ_-135">
          <mxGeometry y="190" width="550" height="26" as="geometry" />
        </mxCell>
        <mxCell id="zi2qdgZ5hEnQhHXnhvMA-17" value="+ toString(): String " style="text;align=left;verticalAlign=top;spacingLeft=4;spacingRight=4;overflow=hidden;rotatable=0;points=[[0,0.5],[1,0.5]];portConstraint=eastwest;rounded=0;shadow=0;html=1;" vertex="1" parent="kKEf6lI8IoqkB2jt7rZ_-135">
          <mxGeometry y="216" width="550" height="26" as="geometry" />
        </mxCell>
        <mxCell id="kKEf6lI8IoqkB2jt7rZ_-152" value="Eletronicos" style="swimlane;fontStyle=2;align=center;verticalAlign=top;childLayout=stackLayout;horizontal=1;startSize=26;horizontalStack=0;resizeParent=1;resizeLast=0;collapsible=1;marginBottom=0;rounded=0;shadow=0;strokeWidth=1;" parent="WIyWlLk6GJQsqaUBKTNV-1" vertex="1">
          <mxGeometry x="880" y="40" width="550" height="232" as="geometry">
            <mxRectangle x="147.5" y="400" width="160" height="26" as="alternateBounds" />
          </mxGeometry>
        </mxCell>
        <mxCell id="kKEf6lI8IoqkB2jt7rZ_-153" value="- anoDeLancamento : int" style="text;align=left;verticalAlign=top;spacingLeft=4;spacingRight=4;overflow=hidden;rotatable=0;points=[[0,0.5],[1,0.5]];portConstraint=eastwest;" parent="kKEf6lI8IoqkB2jt7rZ_-152" vertex="1">
          <mxGeometry y="26" width="550" height="26" as="geometry" />
        </mxCell>
        <mxCell id="zi2qdgZ5hEnQhHXnhvMA-12" value="+ contList: int (static)" style="text;align=left;verticalAlign=top;spacingLeft=4;spacingRight=4;overflow=hidden;rotatable=0;points=[[0,0.5],[1,0.5]];portConstraint=eastwest;html=1;" vertex="1" parent="kKEf6lI8IoqkB2jt7rZ_-152">
          <mxGeometry y="52" width="550" height="26" as="geometry" />
        </mxCell>
        <mxCell id="kKEf6lI8IoqkB2jt7rZ_-155" value="" style="line;html=1;strokeWidth=1;align=left;verticalAlign=middle;spacingTop=-1;spacingLeft=3;spacingRight=3;rotatable=0;labelPosition=right;points=[];portConstraint=eastwest;" parent="kKEf6lI8IoqkB2jt7rZ_-152" vertex="1">
          <mxGeometry y="78" width="550" height="8" as="geometry" />
        </mxCell>
        <mxCell id="kKEf6lI8IoqkB2jt7rZ_-157" value="+ Eletronicos(nome: String, descricao: String, marca: String, cor: String, categoria: String, valor: double, quantidade: int, codigo: long, anoDeLancamento: int)" style="text;align=left;verticalAlign=top;spacingLeft=4;spacingRight=4;overflow=hidden;rotatable=0;points=[[0,0.5],[1,0.5]];portConstraint=eastwest;rounded=0;shadow=0;html=1;whiteSpace=wrap;" parent="kKEf6lI8IoqkB2jt7rZ_-152" vertex="1">
          <mxGeometry y="86" width="550" height="34" as="geometry" />
        </mxCell>
        <mxCell id="zi2qdgZ5hEnQhHXnhvMA-13" value="+ Eletronicos(outro: Eletronicos)" style="text;align=left;verticalAlign=top;spacingLeft=4;spacingRight=4;overflow=hidden;rotatable=0;points=[[0,0.5],[1,0.5]];portConstraint=eastwest;rounded=0;shadow=0;" vertex="1" parent="kKEf6lI8IoqkB2jt7rZ_-152">
          <mxGeometry y="120" width="550" height="26" as="geometry" />
        </mxCell>
        <mxCell id="kKEf6lI8IoqkB2jt7rZ_-159" value="" style="line;html=1;strokeWidth=1;align=left;verticalAlign=middle;spacingTop=-1;spacingLeft=3;spacingRight=3;rotatable=0;labelPosition=right;points=[];portConstraint=eastwest;" parent="kKEf6lI8IoqkB2jt7rZ_-152" vertex="1">
          <mxGeometry y="146" width="550" height="8" as="geometry" />
        </mxCell>
        <mxCell id="kKEf6lI8IoqkB2jt7rZ_-160" value="+ getAnoDeLancamento() : int" style="text;align=left;verticalAlign=top;spacingLeft=4;spacingRight=4;overflow=hidden;rotatable=0;points=[[0,0.5],[1,0.5]];portConstraint=eastwest;rounded=0;shadow=0;html=0;" parent="kKEf6lI8IoqkB2jt7rZ_-152" vertex="1">
          <mxGeometry y="154" width="550" height="26" as="geometry" />
        </mxCell>
        <mxCell id="kKEf6lI8IoqkB2jt7rZ_-161" value="+ setAnoDeLancamento(anoDeLancamento : int) : void" style="text;align=left;verticalAlign=top;spacingLeft=4;spacingRight=4;overflow=hidden;rotatable=0;points=[[0,0.5],[1,0.5]];portConstraint=eastwest;rounded=0;shadow=0;html=0;" parent="kKEf6lI8IoqkB2jt7rZ_-152" vertex="1">
          <mxGeometry y="180" width="550" height="26" as="geometry" />
        </mxCell>
        <mxCell id="zi2qdgZ5hEnQhHXnhvMA-14" value="+ toString(): String" style="text;align=left;verticalAlign=top;spacingLeft=4;spacingRight=4;overflow=hidden;rotatable=0;points=[[0,0.5],[1,0.5]];portConstraint=eastwest;rounded=0;shadow=0;html=1;" vertex="1" parent="kKEf6lI8IoqkB2jt7rZ_-152">
          <mxGeometry y="206" width="550" height="26" as="geometry" />
        </mxCell>
        <mxCell id="kKEf6lI8IoqkB2jt7rZ_-169" value="Item" style="swimlane;fontStyle=2;align=center;verticalAlign=top;childLayout=stackLayout;horizontal=1;startSize=26;horizontalStack=0;resizeParent=1;resizeLast=0;collapsible=1;marginBottom=0;rounded=0;shadow=0;strokeWidth=1;" parent="WIyWlLk6GJQsqaUBKTNV-1" vertex="1">
          <mxGeometry x="238" y="700" width="352" height="276" as="geometry">
            <mxRectangle x="147.5" y="400" width="160" height="26" as="alternateBounds" />
          </mxGeometry>
        </mxCell>
        <mxCell id="kKEf6lI8IoqkB2jt7rZ_-170" value="- produto: Produto" style="text;align=left;verticalAlign=top;spacingLeft=4;spacingRight=4;overflow=hidden;rotatable=0;points=[[0,0.5],[1,0.5]];portConstraint=eastwest;" parent="kKEf6lI8IoqkB2jt7rZ_-169" vertex="1">
          <mxGeometry y="26" width="352" height="26" as="geometry" />
        </mxCell>
        <mxCell id="kKEf6lI8IoqkB2jt7rZ_-179" value="- quantidade: int" style="text;align=left;verticalAlign=top;spacingLeft=4;spacingRight=4;overflow=hidden;rotatable=0;points=[[0,0.5],[1,0.5]];portConstraint=eastwest;" parent="kKEf6lI8IoqkB2jt7rZ_-169" vertex="1">
          <mxGeometry y="52" width="352" height="26" as="geometry" />
        </mxCell>
        <mxCell id="kKEf6lI8IoqkB2jt7rZ_-171" value="" style="line;html=1;strokeWidth=1;align=left;verticalAlign=middle;spacingTop=-1;spacingLeft=3;spacingRight=3;rotatable=0;labelPosition=right;points=[];portConstraint=eastwest;" parent="kKEf6lI8IoqkB2jt7rZ_-169" vertex="1">
          <mxGeometry y="78" width="352" height="8" as="geometry" />
        </mxCell>
        <mxCell id="kKEf6lI8IoqkB2jt7rZ_-174" value="+ Item(produto: Produto, quantidade : int)" style="text;align=left;verticalAlign=top;spacingLeft=4;spacingRight=4;overflow=hidden;rotatable=0;points=[[0,0.5],[1,0.5]];portConstraint=eastwest;rounded=0;shadow=0;html=0;" parent="kKEf6lI8IoqkB2jt7rZ_-169" vertex="1">
          <mxGeometry y="86" width="352" height="26" as="geometry" />
        </mxCell>
        <mxCell id="kKEf6lI8IoqkB2jt7rZ_-175" value="" style="line;html=1;strokeWidth=1;align=left;verticalAlign=middle;spacingTop=-1;spacingLeft=3;spacingRight=3;rotatable=0;labelPosition=right;points=[];portConstraint=eastwest;" parent="kKEf6lI8IoqkB2jt7rZ_-169" vertex="1">
          <mxGeometry y="112" width="352" height="8" as="geometry" />
        </mxCell>
        <mxCell id="zi2qdgZ5hEnQhHXnhvMA-24" value="+ adicionaQuantidade(quant: int)" style="text;align=left;verticalAlign=top;spacingLeft=4;spacingRight=4;overflow=hidden;rotatable=0;points=[[0,0.5],[1,0.5]];portConstraint=eastwest;rounded=0;shadow=0;html=0;" vertex="1" parent="kKEf6lI8IoqkB2jt7rZ_-169">
          <mxGeometry y="120" width="352" height="26" as="geometry" />
        </mxCell>
        <mxCell id="zi2qdgZ5hEnQhHXnhvMA-26" value="+ removeQuantidade(quant: int)" style="text;align=left;verticalAlign=top;spacingLeft=4;spacingRight=4;overflow=hidden;rotatable=0;points=[[0,0.5],[1,0.5]];portConstraint=eastwest;rounded=0;shadow=0;html=0;" vertex="1" parent="kKEf6lI8IoqkB2jt7rZ_-169">
          <mxGeometry y="146" width="352" height="26" as="geometry" />
        </mxCell>
        <mxCell id="zi2qdgZ5hEnQhHXnhvMA-25" value="+ limpaQuantidade(): int" style="text;align=left;verticalAlign=top;spacingLeft=4;spacingRight=4;overflow=hidden;rotatable=0;points=[[0,0.5],[1,0.5]];portConstraint=eastwest;rounded=0;shadow=0;html=0;" vertex="1" parent="kKEf6lI8IoqkB2jt7rZ_-169">
          <mxGeometry y="172" width="352" height="26" as="geometry" />
        </mxCell>
        <mxCell id="kKEf6lI8IoqkB2jt7rZ_-180" value="+ getNomeDaEmpresa() : String" style="text;align=left;verticalAlign=top;spacingLeft=4;spacingRight=4;overflow=hidden;rotatable=0;points=[[0,0.5],[1,0.5]];portConstraint=eastwest;rounded=0;shadow=0;html=0;" parent="kKEf6lI8IoqkB2jt7rZ_-169" vertex="1">
          <mxGeometry y="198" width="352" height="26" as="geometry" />
        </mxCell>
        <mxCell id="kKEf6lI8IoqkB2jt7rZ_-181" value="+ setNomeDaEmpresa(nomeDaEmpresa : String) : void" style="text;align=left;verticalAlign=top;spacingLeft=4;spacingRight=4;overflow=hidden;rotatable=0;points=[[0,0.5],[1,0.5]];portConstraint=eastwest;rounded=0;shadow=0;html=0;" parent="kKEf6lI8IoqkB2jt7rZ_-169" vertex="1">
          <mxGeometry y="224" width="352" height="26" as="geometry" />
        </mxCell>
        <mxCell id="zi2qdgZ5hEnQhHXnhvMA-27" value="+ toString(): String" style="text;align=left;verticalAlign=top;spacingLeft=4;spacingRight=4;overflow=hidden;rotatable=0;points=[[0,0.5],[1,0.5]];portConstraint=eastwest;rounded=0;shadow=0;html=0;" vertex="1" parent="kKEf6lI8IoqkB2jt7rZ_-169">
          <mxGeometry y="250" width="352" height="26" as="geometry" />
        </mxCell>
        <mxCell id="kKEf6lI8IoqkB2jt7rZ_-183" value="Roupa" style="swimlane;fontStyle=2;align=center;verticalAlign=top;childLayout=stackLayout;horizontal=1;startSize=26;horizontalStack=0;resizeParent=1;resizeLast=0;collapsible=1;marginBottom=0;rounded=0;shadow=0;strokeWidth=1;" parent="WIyWlLk6GJQsqaUBKTNV-1" vertex="1">
          <mxGeometry x="-610" y="220" width="550" height="318" as="geometry">
            <mxRectangle x="147.5" y="400" width="160" height="26" as="alternateBounds" />
          </mxGeometry>
        </mxCell>
        <mxCell id="kKEf6lI8IoqkB2jt7rZ_-184" value="- tamanho : String" style="text;align=left;verticalAlign=top;spacingLeft=4;spacingRight=4;overflow=hidden;rotatable=0;points=[[0,0.5],[1,0.5]];portConstraint=eastwest;" parent="kKEf6lI8IoqkB2jt7rZ_-183" vertex="1">
          <mxGeometry y="26" width="550" height="26" as="geometry" />
        </mxCell>
        <mxCell id="2gL05hQ5_HFMvIBrOr-T-7" value="- tecido : String" style="text;align=left;verticalAlign=top;spacingLeft=4;spacingRight=4;overflow=hidden;rotatable=0;points=[[0,0.5],[1,0.5]];portConstraint=eastwest;" parent="kKEf6lI8IoqkB2jt7rZ_-183" vertex="1">
          <mxGeometry y="52" width="550" height="26" as="geometry" />
        </mxCell>
        <mxCell id="zi2qdgZ5hEnQhHXnhvMA-21" value="+ contList: int (static)" style="text;align=left;verticalAlign=top;spacingLeft=4;spacingRight=4;overflow=hidden;rotatable=0;points=[[0,0.5],[1,0.5]];portConstraint=eastwest;html=1;" vertex="1" parent="kKEf6lI8IoqkB2jt7rZ_-183">
          <mxGeometry y="78" width="550" height="26" as="geometry" />
        </mxCell>
        <mxCell id="kKEf6lI8IoqkB2jt7rZ_-186" value="" style="line;html=1;strokeWidth=1;align=left;verticalAlign=middle;spacingTop=-1;spacingLeft=3;spacingRight=3;rotatable=0;labelPosition=right;points=[];portConstraint=eastwest;" parent="kKEf6lI8IoqkB2jt7rZ_-183" vertex="1">
          <mxGeometry y="104" width="550" height="8" as="geometry" />
        </mxCell>
        <mxCell id="zi2qdgZ5hEnQhHXnhvMA-22" value="+ Roupas(nome: String, descricao: String, marca: String, cor: String, categoria: String, valor: double, quantidade: int, codigo: long, tamanho: String, tecido: String)" style="text;align=left;verticalAlign=top;spacingLeft=4;spacingRight=4;overflow=hidden;rotatable=0;points=[[0,0.5],[1,0.5]];portConstraint=eastwest;rounded=0;shadow=0;html=1;whiteSpace=wrap;" vertex="1" parent="kKEf6lI8IoqkB2jt7rZ_-183">
          <mxGeometry y="112" width="550" height="38" as="geometry" />
        </mxCell>
        <mxCell id="kKEf6lI8IoqkB2jt7rZ_-188" value="+ Roupas(outro: Roupas)" style="text;align=left;verticalAlign=top;spacingLeft=4;spacingRight=4;overflow=hidden;rotatable=0;points=[[0,0.5],[1,0.5]];portConstraint=eastwest;rounded=0;shadow=0;whiteSpace=wrap;" parent="kKEf6lI8IoqkB2jt7rZ_-183" vertex="1">
          <mxGeometry y="150" width="550" height="30" as="geometry" />
        </mxCell>
        <mxCell id="kKEf6lI8IoqkB2jt7rZ_-190" value="" style="line;html=1;strokeWidth=1;align=left;verticalAlign=middle;spacingTop=-1;spacingLeft=3;spacingRight=3;rotatable=0;labelPosition=right;points=[];portConstraint=eastwest;" parent="kKEf6lI8IoqkB2jt7rZ_-183" vertex="1">
          <mxGeometry y="180" width="550" height="8" as="geometry" />
        </mxCell>
        <mxCell id="kKEf6lI8IoqkB2jt7rZ_-191" value="+ getTamanho() : String" style="text;align=left;verticalAlign=top;spacingLeft=4;spacingRight=4;overflow=hidden;rotatable=0;points=[[0,0.5],[1,0.5]];portConstraint=eastwest;rounded=0;shadow=0;html=0;" parent="kKEf6lI8IoqkB2jt7rZ_-183" vertex="1">
          <mxGeometry y="188" width="550" height="26" as="geometry" />
        </mxCell>
        <mxCell id="2gL05hQ5_HFMvIBrOr-T-11" value="+ setTamanho(tamanho : String)Â  : void" style="text;align=left;verticalAlign=top;spacingLeft=4;spacingRight=4;overflow=hidden;rotatable=0;points=[[0,0.5],[1,0.5]];portConstraint=eastwest;rounded=0;shadow=0;html=0;" parent="kKEf6lI8IoqkB2jt7rZ_-183" vertex="1">
          <mxGeometry y="214" width="550" height="26" as="geometry" />
        </mxCell>
        <mxCell id="kKEf6lI8IoqkB2jt7rZ_-194" value="+ getTecido() : String" style="text;align=left;verticalAlign=top;spacingLeft=4;spacingRight=4;overflow=hidden;rotatable=0;points=[[0,0.5],[1,0.5]];portConstraint=eastwest;rounded=0;shadow=0;html=0;" parent="kKEf6lI8IoqkB2jt7rZ_-183" vertex="1">
          <mxGeometry y="240" width="550" height="26" as="geometry" />
        </mxCell>
        <mxCell id="2gL05hQ5_HFMvIBrOr-T-16" value="+ setTecido(tecido : String) : void" style="text;align=left;verticalAlign=top;spacingLeft=4;spacingRight=4;overflow=hidden;rotatable=0;points=[[0,0.5],[1,0.5]];portConstraint=eastwest;rounded=0;shadow=0;html=0;" parent="kKEf6lI8IoqkB2jt7rZ_-183" vertex="1">
          <mxGeometry y="266" width="550" height="26" as="geometry" />
        </mxCell>
        <mxCell id="zi2qdgZ5hEnQhHXnhvMA-23" value="+ toString(): String" style="text;align=left;verticalAlign=top;spacingLeft=4;spacingRight=4;overflow=hidden;rotatable=0;points=[[0,0.5],[1,0.5]];portConstraint=eastwest;rounded=0;shadow=0;html=1;" vertex="1" parent="kKEf6lI8IoqkB2jt7rZ_-183">
          <mxGeometry y="292" width="550" height="26" as="geometry" />
        </mxCell>
        <mxCell id="zi2qdgZ5hEnQhHXnhvMA-29" value="" style="endArrow=classic;html=1;rounded=0;exitX=0.5;exitY=0;exitDx=0;exitDy=0;entryX=0;entryY=0.5;entryDx=0;entryDy=0;" edge="1" parent="WIyWlLk6GJQsqaUBKTNV-1" source="kKEf6lI8IoqkB2jt7rZ_-183" target="E04pcbBt4ZjqkLTvvGPm-8">
          <mxGeometry width="50" height="50" relative="1" as="geometry">
            <mxPoint x="-101" y="210" as="sourcePoint" />
            <mxPoint x="60" y="170" as="targetPoint" />
            <Array as="points">
              <mxPoint x="-335" y="170" />
            </Array>
          </mxGeometry>
        </mxCell>
        <mxCell id="zi2qdgZ5hEnQhHXnhvMA-30" value="" style="endArrow=classic;html=1;rounded=0;exitX=0.5;exitY=0;exitDx=0;exitDy=0;entryX=0.076;entryY=-0.004;entryDx=0;entryDy=0;entryPerimeter=0;" edge="1" parent="WIyWlLk6GJQsqaUBKTNV-1" source="kKEf6lI8IoqkB2jt7rZ_-117" target="zkfFHV4jXpPFQw0GAbJ--0">
          <mxGeometry width="50" height="50" relative="1" as="geometry">
            <mxPoint x="-280" y="-460" as="sourcePoint" />
            <mxPoint x="210" y="-530" as="targetPoint" />
            <Array as="points">
              <mxPoint x="-345" y="-530" />
              <mxPoint x="202" y="-540" />
            </Array>
          </mxGeometry>
        </mxCell>
        <mxCell id="zi2qdgZ5hEnQhHXnhvMA-31" value="" style="endArrow=classic;html=1;rounded=0;exitX=0.5;exitY=0;exitDx=0;exitDy=0;entryX=0.996;entryY=0.082;entryDx=0;entryDy=0;entryPerimeter=0;" edge="1" parent="WIyWlLk6GJQsqaUBKTNV-1" source="kKEf6lI8IoqkB2jt7rZ_-152" target="kKEf6lI8IoqkB2jt7rZ_-111">
          <mxGeometry width="50" height="50" relative="1" as="geometry">
            <mxPoint x="1180" y="10" as="sourcePoint" />
            <mxPoint x="720" as="targetPoint" />
            <Array as="points">
              <mxPoint x="1150" />
            </Array>
          </mxGeometry>
        </mxCell>
        <mxCell id="zi2qdgZ5hEnQhHXnhvMA-32" value="" style="endArrow=classic;html=1;rounded=0;exitX=0.5;exitY=0;exitDx=0;exitDy=0;entryX=1.001;entryY=0.013;entryDx=0;entryDy=0;entryPerimeter=0;" edge="1" parent="WIyWlLk6GJQsqaUBKTNV-1" source="kKEf6lI8IoqkB2jt7rZ_-135" target="zkfFHV4jXpPFQw0GAbJ--0">
          <mxGeometry width="50" height="50" relative="1" as="geometry">
            <mxPoint x="1100" y="-430" as="sourcePoint" />
            <mxPoint x="1150" y="-480" as="targetPoint" />
            <Array as="points">
              <mxPoint x="1160" y="-390" />
            </Array>
          </mxGeometry>
        </mxCell>
      </root>
    </mxGraphModel>
  </diagram>
</mxfile>
